<svg xmlns="http://www.w3.org/2000/svg" preserveAspectRatio="xMidYMid" version="1.0" viewBox="0 0 140.25 151.06"><defs><clipPath id="a"><path d="M219 20.574h140.91v141.75H219z"/></clipPath></defs><g fill="var(--back)" stroke-width="1.2678"><path d="M64.92 0 42.218 22.794H64.92z"/><path d="m38.04 0 22.702 22.794H38.04z"/></g><g clip-path="url(#a)" transform="translate(-219 -11.268)"><path fill="var(--back)" d="M270.47 20.578c7.6016 0 13.445 5.8398 13.445 13.484 0 7.6562-5.8438 13.5-13.445 13.5-7.6016 0-13.43-5.8438-13.43-13.5 0-7.6445 5.8281-13.484 13.43-13.484zm1.625 30.324v.0039c13.281 0 39.801.04297 39.801.04297 5.6797.17578 6.6758 1.2969 8.8594 4.543l12.422 20.777c3.7812 8.0781-7.5078 13.637-11.684 6.0195l-10.129-17.746c-.19141-.32812-.47657-.41016-.84766-.39453l-13.988.16016c3.8203 8.1641 7.6445 16.316 11.465 24.504 1.1719 3.0586 1.5274 5.8555 1.8438 9.8945.50391 8.1367.95703 16.328 1.4336 24.461.14843 1.0781.5039 1.8008 1.8008 1.8008 10.223-.0391 29.781-.26172 29.781-.26172 10.156.39843 16.395 8.7109 16.395 15.004l-54.762-.1211c-4.8438-.15234-8.543-1.543-8.9805-7.0156l-1.668-31.629c-8.8281 17.773-17.688 35.531-26.504 53.301-2.1992 3.8633-4.8047 8.1797-11.059 8.043l-11.957.0391 32.598-65.816c.65234-1.2422-.21875-2.8398-.58985-3.5469-3.2734-6.9492-6.3711-13.066-9.6602-20.258l-11.863 14.02c-1.9531 1.9531-2.8047 2.4375-4.6328 2.4688-.0664.0039-24.695.03125-24.695.03125-3.5859 0-6.4726-2.8828-6.4726-6.4688 0-3.582 2.8867-6.4727 6.4726-6.4727 6.5156.20703 13.832-.15234 19.785-.15234 1.7891.01563 2.2109-.37109 2.9609-1.2695 5.4062-6.375 11.469-13.664 17.008-20.5 2.0625-2.1992 2.5547-3.5508 6.8672-3.457z"/></g></svg>
